<svg width="710" height="948" viewBox="0 0 710 948" fill="none" xmlns="http://www.w3.org/2000/svg">
<rect x="338.324" y="175.382" width="74.7847" height="126.337" transform="rotate(-39.1124 338.324 175.382)" fill="white"/>
<path d="M71 59.5854C71 27.0006 97.4152 0.585449 130 0.585449H162.309V262.222C162.309 287.437 141.869 307.877 116.655 307.877V307.877C91.4403 307.877 71 287.437 71 262.222V59.5854Z" fill="white"/>
<rect x="162.309" y="0.585449" width="42.7282" height="75.5059" fill="white"/>
<rect x="162.309" y="96.5874" width="42.7282" height="75.5059" fill="white"/>
<path d="M130.751 172.604L199.306 112.29L510.866 463.347L386.541 463.347L130.751 172.604Z" fill="white"/>
<rect x="208.386" y="339.692" width="91.3095" height="151.069" transform="rotate(45 208.386 339.692)" fill="white"/>
<rect x="534.522" y="15.3396" width="91.3095" height="200.376" transform="rotate(45 534.522 15.3396)" fill="white"/>
<path d="M406.972 162.048C406.972 146.584 419.508 134.048 434.972 134.048H459.161C474.625 134.048 487.161 146.584 487.161 162.048V277.745C487.161 303.683 454.939 315.678 437.977 296.055L413.789 268.07C409.392 262.983 406.972 256.484 406.972 249.76V162.048Z" fill="white"/>
<path d="M142.409 548.458V462.416L559.155 462.416V548.458H142.409Z" fill="white"/>
<mask id="path-10-inside-1_15_3" fill="white">
<path d="M194.793 171.204C220.949 171.372 246.092 162.548 264.691 146.672C283.289 130.797 293.819 109.171 293.964 86.5521C294.11 63.9331 283.858 42.1737 265.465 26.0608C247.073 9.94788 222.045 0.801355 195.888 0.633334L195.413 74.554C198.899 74.5764 202.234 75.7952 204.685 77.9423C207.136 80.0894 208.502 82.9889 208.482 86.003C208.463 89.0171 207.06 91.8988 204.582 94.0143C202.103 96.1297 198.753 97.3056 195.267 97.2832L194.793 171.204Z"/>
</mask>
<path d="M194.793 171.204C220.949 171.372 246.092 162.548 264.691 146.672C283.289 130.797 293.819 109.171 293.964 86.5521C294.11 63.9331 283.858 42.1737 265.465 26.0608C247.073 9.94788 222.045 0.801355 195.888 0.633334L195.413 74.554C198.899 74.5764 202.234 75.7952 204.685 77.9423C207.136 80.0894 208.502 82.9889 208.482 86.003C208.463 89.0171 207.06 91.8988 204.582 94.0143C202.103 96.1297 198.753 97.3056 195.267 97.2832L194.793 171.204Z" stroke="white" stroke-width="312" mask="url(#path-10-inside-1_15_3)"/>
<ellipse cx="138.311" cy="490.507" rx="56.7758" ry="57.3611" fill="white"/>
<ellipse cx="572.032" cy="57.9465" rx="56.7758" ry="57.3611" fill="white"/>
<path d="M331.466 35.5854C331.466 16.2554 347.136 0.585449 366.466 0.585449H376.655C395.985 0.585449 411.655 16.2555 411.655 35.5855V167.29C411.655 200.226 370.302 214.929 349.51 189.384L339.321 176.866C334.24 170.624 331.466 162.821 331.466 154.772V35.5854Z" fill="white"/>
<path d="M559.74 15.4135C559.74 7.22417 566.379 0.585449 574.568 0.585449V0.585449C610.343 0.585449 639.343 29.5863 639.343 65.3605V155.109H559.74V15.4135Z" fill="white"/>
<path d="M559.155 104.782H639.344V482.453C639.344 518.904 609.795 548.453 573.344 548.453H559.155V104.782Z" fill="white"/>
<path d="M17.8711 798V638H74.9023C87.2982 638 97.5846 640.135 105.762 644.406C113.991 648.677 120.137 654.589 124.199 662.141C128.262 669.641 130.293 678.312 130.293 688.156C130.293 697.948 128.236 706.568 124.121 714.016C120.059 721.411 113.913 727.167 105.684 731.281C97.5065 735.396 87.2201 737.453 74.8242 737.453H31.6211V716.672H72.6367C80.4492 716.672 86.8034 715.552 91.6992 713.312C96.6471 711.073 100.267 707.818 102.559 703.547C104.85 699.276 105.996 694.146 105.996 688.156C105.996 682.115 104.824 676.88 102.48 672.453C100.189 668.026 96.569 664.641 91.6211 662.297C86.7253 659.901 80.293 658.703 72.3242 658.703H42.0117V798H17.8711ZM96.8555 725.812L136.387 798H108.887L70.1367 725.812H96.8555ZM208.008 800.422C196.185 800.422 186.003 797.896 177.461 792.844C168.971 787.74 162.409 780.578 157.773 771.359C153.19 762.089 150.898 751.229 150.898 738.781C150.898 726.49 153.19 715.656 157.773 706.281C162.409 696.906 168.867 689.589 177.148 684.328C185.482 679.068 195.221 676.438 206.367 676.438C213.138 676.438 219.701 677.557 226.055 679.797C232.409 682.036 238.112 685.552 243.164 690.344C248.216 695.135 252.201 701.359 255.117 709.016C258.034 716.62 259.492 725.865 259.492 736.75V745.031H164.102V727.531H236.602C236.602 721.385 235.352 715.943 232.852 711.203C230.352 706.411 226.836 702.635 222.305 699.875C217.826 697.115 212.565 695.734 206.523 695.734C199.961 695.734 194.232 697.349 189.336 700.578C184.492 703.755 180.742 707.922 178.086 713.078C175.482 718.182 174.18 723.729 174.18 729.719V743.391C174.18 751.411 175.586 758.234 178.398 763.859C181.263 769.484 185.247 773.781 190.352 776.75C195.456 779.667 201.419 781.125 208.242 781.125C212.669 781.125 216.706 780.5 220.352 779.25C223.997 777.948 227.148 776.021 229.805 773.469C232.461 770.917 234.492 767.766 235.898 764.016L258.008 768C256.237 774.51 253.06 780.214 248.477 785.109C243.945 789.953 238.242 793.729 231.367 796.437C224.544 799.094 216.758 800.422 208.008 800.422ZM416.426 638V798H394.238L312.91 680.656H311.426V798H287.285V638H309.629L391.035 755.5H392.52V638H416.426ZM501.484 800.422C489.661 800.422 479.479 797.896 470.938 792.844C462.448 787.74 455.885 780.578 451.25 771.359C446.667 762.089 444.375 751.229 444.375 738.781C444.375 726.49 446.667 715.656 451.25 706.281C455.885 696.906 462.344 689.589 470.625 684.328C478.958 679.068 488.698 676.438 499.844 676.438C506.615 676.438 513.177 677.557 519.531 679.797C525.885 682.036 531.589 685.552 536.641 690.344C541.693 695.135 545.677 701.359 548.594 709.016C551.51 716.62 552.969 725.865 552.969 736.75V745.031H457.578V727.531H530.078C530.078 721.385 528.828 715.943 526.328 711.203C523.828 706.411 520.313 702.635 515.781 699.875C511.302 697.115 506.042 695.734 500 695.734C493.438 695.734 487.708 697.349 482.813 700.578C477.969 703.755 474.219 707.922 471.563 713.078C468.958 718.182 467.656 723.729 467.656 729.719V743.391C467.656 751.411 469.063 758.234 471.875 763.859C474.74 769.484 478.724 773.781 483.828 776.75C488.932 779.667 494.896 781.125 501.719 781.125C506.146 781.125 510.182 780.5 513.828 779.25C517.474 777.948 520.625 776.021 523.281 773.469C525.938 770.917 527.969 767.766 529.375 764.016L551.484 768C549.714 774.51 546.536 780.214 541.953 785.109C537.422 789.953 531.719 793.729 524.844 796.437C518.021 799.094 510.234 800.422 501.484 800.422ZM597.559 638L635.84 700.578H637.09L675.371 638H703.34L653.496 718L703.652 798H675.527L637.09 736.281H635.84L597.402 798H569.277L620.293 718L569.59 638H597.559Z" fill="white"/>
<path d="M40.1861 929V870.818H60.527C64.58 870.818 67.9228 871.519 70.5554 872.92C73.188 874.303 75.1482 876.169 76.4361 878.517C77.724 880.847 78.3679 883.432 78.3679 886.273C78.3679 888.773 77.9228 890.837 77.0327 892.466C76.1615 894.095 75.0062 895.383 73.5668 896.33C72.1463 897.277 70.6027 897.977 68.9361 898.432V899C70.7164 899.114 72.5062 899.739 74.3054 900.875C76.1046 902.011 77.6103 903.64 78.8224 905.761C80.0346 907.883 80.6406 910.477 80.6406 913.545C80.6406 916.462 79.9777 919.085 78.652 921.415C77.3262 923.744 75.2334 925.591 72.3736 926.955C69.5137 928.318 65.7921 929 61.2088 929H40.1861ZM47.2315 922.75H61.2088C65.8111 922.75 69.0781 921.86 71.0099 920.08C72.9607 918.28 73.9361 916.102 73.9361 913.545C73.9361 911.576 73.4342 909.758 72.4304 908.091C71.4266 906.405 69.9967 905.061 68.1406 904.057C66.2846 903.034 64.0876 902.523 61.5497 902.523H47.2315V922.75ZM47.2315 896.386H60.2997C62.4209 896.386 64.3338 895.97 66.0384 895.136C67.7618 894.303 69.1255 893.129 70.1293 891.614C71.152 890.098 71.6634 888.318 71.6634 886.273C71.6634 883.716 70.7732 881.547 68.9929 879.767C67.2126 877.968 64.3906 877.068 60.527 877.068H47.2315V896.386ZM118.808 911.159V885.364H125.513V929H118.808V921.614H118.354C117.331 923.83 115.74 925.714 113.581 927.267C111.422 928.801 108.695 929.568 105.399 929.568C102.672 929.568 100.248 928.972 98.1264 927.778C96.0052 926.566 94.3385 924.748 93.1264 922.324C91.9143 919.881 91.3082 916.803 91.3082 913.091V885.364H98.0128V912.636C98.0128 915.818 98.9029 918.356 100.683 920.25C102.482 922.144 104.774 923.091 107.558 923.091C109.225 923.091 110.92 922.665 112.643 921.812C114.386 920.96 115.844 919.653 117.018 917.892C118.212 916.131 118.808 913.886 118.808 911.159ZM142.111 945.364C140.974 945.364 139.961 945.269 139.071 945.08C138.181 944.909 137.565 944.739 137.224 944.568L138.929 938.659C140.558 939.076 141.997 939.227 143.247 939.114C144.497 939 145.605 938.441 146.571 937.438C147.556 936.453 148.455 934.852 149.27 932.636L150.52 929.227L134.384 885.364H141.656L153.702 920.136H154.156L166.202 885.364H173.474L154.952 935.364C154.118 937.617 153.086 939.483 151.855 940.96C150.624 942.456 149.194 943.564 147.565 944.284C145.955 945.004 144.137 945.364 142.111 945.364ZM221.188 912.409C218.896 912.409 216.803 911.85 214.909 910.733C213.015 909.597 211.5 908.081 210.364 906.188C209.246 904.294 208.688 902.201 208.688 899.909C208.688 897.598 209.246 895.506 210.364 893.631C211.5 891.737 213.015 890.231 214.909 889.114C216.803 887.977 218.896 887.409 221.188 887.409C223.498 887.409 225.591 887.977 227.466 889.114C229.36 890.231 230.866 891.737 231.983 893.631C233.119 895.506 233.688 897.598 233.688 899.909C233.688 902.201 233.119 904.294 231.983 906.188C230.866 908.081 229.36 909.597 227.466 910.733C225.591 911.85 223.498 912.409 221.188 912.409ZM305.051 885.364C304.71 882.485 303.328 880.25 300.903 878.659C298.479 877.068 295.506 876.273 291.983 876.273C289.407 876.273 287.153 876.689 285.222 877.523C283.309 878.356 281.813 879.502 280.733 880.96C279.672 882.419 279.142 884.076 279.142 885.932C279.142 887.485 279.511 888.82 280.25 889.938C281.008 891.036 281.973 891.955 283.148 892.693C284.322 893.413 285.553 894.009 286.841 894.483C288.129 894.937 289.312 895.307 290.392 895.591L296.301 897.182C297.816 897.58 299.502 898.129 301.358 898.83C303.233 899.53 305.023 900.487 306.727 901.699C308.451 902.892 309.871 904.426 310.989 906.301C312.106 908.176 312.665 910.477 312.665 913.205C312.665 916.348 311.841 919.189 310.193 921.727C308.564 924.265 306.178 926.282 303.034 927.778C299.909 929.275 296.112 930.023 291.642 930.023C287.475 930.023 283.867 929.35 280.818 928.006C277.788 926.661 275.402 924.786 273.659 922.381C271.936 919.975 270.96 917.182 270.733 914H278.006C278.195 916.197 278.934 918.015 280.222 919.455C281.528 920.875 283.176 921.936 285.165 922.636C287.172 923.318 289.331 923.659 291.642 923.659C294.331 923.659 296.746 923.223 298.886 922.352C301.027 921.462 302.722 920.231 303.972 918.659C305.222 917.068 305.847 915.212 305.847 913.091C305.847 911.159 305.307 909.587 304.227 908.375C303.148 907.163 301.727 906.178 299.966 905.42C298.205 904.663 296.301 904 294.256 903.432L287.097 901.386C282.551 900.08 278.953 898.214 276.301 895.79C273.65 893.366 272.324 890.193 272.324 886.273C272.324 883.015 273.205 880.174 274.966 877.75C276.746 875.307 279.133 873.413 282.125 872.068C285.136 870.705 288.498 870.023 292.21 870.023C295.96 870.023 299.294 870.695 302.21 872.04C305.127 873.366 307.438 875.184 309.142 877.494C310.866 879.805 311.775 882.428 311.869 885.364H305.051ZM341.635 929.909C337.43 929.909 333.804 928.981 330.754 927.125C327.724 925.25 325.385 922.636 323.737 919.284C322.108 915.913 321.294 911.992 321.294 907.523C321.294 903.053 322.108 899.114 323.737 895.705C325.385 892.277 327.677 889.606 330.612 887.693C333.567 885.761 337.014 884.795 340.953 884.795C343.226 884.795 345.47 885.174 347.686 885.932C349.902 886.689 351.919 887.92 353.737 889.625C355.555 891.311 357.004 893.545 358.084 896.33C359.163 899.114 359.703 902.542 359.703 906.614V909.455H326.067V903.659H352.885C352.885 901.197 352.393 899 351.408 897.068C350.442 895.136 349.059 893.612 347.26 892.494C345.48 891.377 343.377 890.818 340.953 890.818C338.283 890.818 335.972 891.481 334.021 892.807C332.089 894.114 330.603 895.818 329.561 897.92C328.519 900.023 327.999 902.277 327.999 904.682V908.545C327.999 911.841 328.567 914.634 329.703 916.926C330.858 919.199 332.459 920.932 334.504 922.125C336.55 923.299 338.927 923.886 341.635 923.886C343.396 923.886 344.987 923.64 346.408 923.148C347.847 922.636 349.088 921.879 350.129 920.875C351.171 919.852 351.976 918.583 352.544 917.068L359.021 918.886C358.339 921.083 357.194 923.015 355.584 924.682C353.974 926.33 351.985 927.617 349.618 928.545C347.25 929.455 344.589 929.909 341.635 929.909ZM376.607 870.818V929H369.902V870.818H376.607ZM395.591 870.818V929H388.886V870.818H395.591ZM446.734 912.409C444.443 912.409 442.35 911.85 440.456 910.733C438.562 909.597 437.047 908.081 435.911 906.188C434.793 904.294 434.234 902.201 434.234 899.909C434.234 897.598 434.793 895.506 435.911 893.631C437.047 891.737 438.562 890.231 440.456 889.114C442.35 887.977 444.443 887.409 446.734 887.409C449.045 887.409 451.138 887.977 453.013 889.114C454.907 890.231 456.412 891.737 457.53 893.631C458.666 895.506 459.234 897.598 459.234 899.909C459.234 902.201 458.666 904.294 457.53 906.188C456.412 908.081 454.907 909.597 453.013 910.733C451.138 911.85 449.045 912.409 446.734 912.409ZM498.78 929V870.818H518.439C522.984 870.818 526.715 871.595 529.632 873.148C532.549 874.682 534.708 876.794 536.109 879.483C537.511 882.172 538.212 885.231 538.212 888.659C538.212 892.087 537.511 895.127 536.109 897.778C534.708 900.43 532.558 902.513 529.661 904.028C526.763 905.525 523.06 906.273 518.553 906.273H502.643V899.909H518.325C521.431 899.909 523.931 899.455 525.825 898.545C527.738 897.636 529.121 896.348 529.973 894.682C530.844 892.996 531.28 890.989 531.28 888.659C531.28 886.33 530.844 884.294 529.973 882.551C529.102 880.809 527.71 879.464 525.797 878.517C523.884 877.551 521.356 877.068 518.212 877.068H505.825V929H498.78ZM526.166 902.864L540.484 929H532.303L518.212 902.864H526.166ZM566.869 929.909C562.665 929.909 559.038 928.981 555.989 927.125C552.958 925.25 550.619 922.636 548.972 919.284C547.343 915.913 546.528 911.992 546.528 907.523C546.528 903.053 547.343 899.114 548.972 895.705C550.619 892.277 552.911 889.606 555.847 887.693C558.801 885.761 562.248 884.795 566.188 884.795C568.46 884.795 570.705 885.174 572.92 885.932C575.136 886.689 577.153 887.92 578.972 889.625C580.79 891.311 582.239 893.545 583.318 896.33C584.398 899.114 584.938 902.542 584.938 906.614V909.455H551.301V903.659H578.119C578.119 901.197 577.627 899 576.642 897.068C575.676 895.136 574.294 893.612 572.494 892.494C570.714 891.377 568.612 890.818 566.188 890.818C563.517 890.818 561.206 891.481 559.256 892.807C557.324 894.114 555.837 895.818 554.795 897.92C553.754 900.023 553.233 902.277 553.233 904.682V908.545C553.233 911.841 553.801 914.634 554.938 916.926C556.093 919.199 557.693 920.932 559.739 922.125C561.784 923.299 564.161 923.886 566.869 923.886C568.631 923.886 570.222 923.64 571.642 923.148C573.081 922.636 574.322 921.879 575.364 920.875C576.405 919.852 577.21 918.583 577.778 917.068L584.256 918.886C583.574 921.083 582.428 923.015 580.818 924.682C579.208 926.33 577.22 927.617 574.852 928.545C572.485 929.455 569.824 929.909 566.869 929.909ZM601.841 902.75V929H595.136V885.364H601.614V892.182H602.182C603.205 889.966 604.758 888.186 606.841 886.841C608.924 885.477 611.614 884.795 614.909 884.795C617.864 884.795 620.449 885.402 622.665 886.614C624.881 887.807 626.604 889.625 627.835 892.068C629.066 894.492 629.682 897.561 629.682 901.273V929H622.977V901.727C622.977 898.299 622.087 895.629 620.307 893.716C618.527 891.784 616.083 890.818 612.977 890.818C610.837 890.818 608.924 891.282 607.239 892.21C605.572 893.138 604.256 894.492 603.29 896.273C602.324 898.053 601.841 900.212 601.841 902.75ZM660.911 885.364V891.045H638.297V885.364H660.911ZM644.888 874.909H651.592V916.5C651.592 918.394 651.867 919.814 652.416 920.761C652.984 921.689 653.704 922.314 654.575 922.636C655.465 922.939 656.403 923.091 657.388 923.091C658.126 923.091 658.732 923.053 659.206 922.977C659.679 922.883 660.058 922.807 660.342 922.75L661.706 928.773C661.251 928.943 660.617 929.114 659.803 929.284C658.988 929.473 657.956 929.568 656.706 929.568C654.812 929.568 652.956 929.161 651.138 928.347C649.339 927.532 647.842 926.292 646.649 924.625C645.475 922.958 644.888 920.856 644.888 918.318V874.909Z" fill="white"/>
</svg>
