<svg width="833" height="1046" viewBox="0 0 833 1046" fill="none" xmlns="http://www.w3.org/2000/svg">
<path d="M79 59.1802C79 26.5954 105.415 0.180176 138 0.180176H168.871V335.752C168.871 360.57 148.753 380.688 123.936 380.688V380.688C99.1184 380.688 79 360.57 79 335.752V59.1802Z" fill="white"/>
<rect x="163.844" y="0.296387" width="63.9086" height="72.968" fill="white"/>
<rect x="164.843" y="149.231" width="62.91" height="63.9719" fill="white"/>
<path d="M153.745 219.505L219.751 161.377L611.497 604.129L475.739 585.861L153.745 219.505Z" fill="white"/>
<rect width="89.916" height="187.359" transform="matrix(0.706757 0.707457 -0.706757 0.707457 232.639 428.553)" fill="white"/>
<rect width="89.916" height="248.51" transform="matrix(0.706757 0.707457 -0.706757 0.707457 639.168 18.0881)" fill="white"/>
<path d="M471.404 222.211C471.404 206.747 483.94 194.211 499.404 194.211H533.276C548.74 194.211 561.276 206.747 561.276 222.211V346.814C561.276 372.881 528.784 384.805 511.923 364.926L478.051 324.994C473.76 319.934 471.404 313.516 471.404 306.882V222.211Z" fill="white"/>
<path d="M150.357 674.628V584.668H667.696V674.628L150.357 674.628Z" fill="white"/>
<mask id="path-9-inside-1_19_26" fill="white">
<path d="M222.584 219.748C255.009 219.748 286.106 208.185 309.033 187.601C331.961 167.017 344.842 139.1 344.842 109.99C344.842 80.8802 331.961 52.9627 309.033 32.379C286.106 11.7953 256.302 4.39545e-06 223.878 0L222.584 73.8904C233.249 73.8904 243.477 77.6938 251.018 84.4637C258.558 91.2337 265.072 100.488 265.072 110.062C265.072 119.636 261.371 131.814 253.83 138.584C246.289 145.353 236.062 149.157 225.397 149.157L222.584 219.748Z"/>
</mask>
<path d="M222.584 219.748L66.7081 213.537L60.2445 375.748L222.584 375.748L222.584 219.748ZM223.878 0L223.878 -156L70.5845 -156L67.9017 -2.73018L223.878 0ZM222.584 73.8904L66.6083 71.1602L63.83 229.89L222.584 229.89L222.584 73.8904ZM225.397 149.157L225.397 -6.84318L75.4897 -6.84318L69.521 142.946L225.397 149.157ZM222.584 375.748C291.278 375.748 360.095 351.403 413.249 303.684L204.818 71.5181C212.117 64.9657 218.741 63.7484 222.584 63.7484L222.584 375.748ZM413.249 303.684C466.956 255.467 500.842 186.236 500.842 109.99L188.842 109.99C188.842 91.9638 196.966 78.5676 204.818 71.5181L413.249 303.684ZM500.842 109.99C500.842 33.7443 466.956 -35.4868 413.249 -83.7037L204.818 148.462C196.966 141.412 188.842 128.016 188.842 109.99L500.842 109.99ZM413.249 -83.7037C361.872 -129.828 295.014 -156 223.878 -156L223.878 156C217.591 156 210.34 153.419 204.818 148.462L413.249 -83.7037ZM67.9017 -2.73018L66.6083 71.1602L378.561 76.6206L379.854 2.73018L67.9017 -2.73018ZM222.584 229.89C196.98 229.89 169.488 220.913 146.802 200.547L355.233 -31.619C317.465 -65.5251 269.517 -82.1096 222.584 -82.1096L222.584 229.89ZM146.802 200.547C141.604 195.88 133.824 187.868 126.524 175.499C119.338 163.322 109.072 140.733 109.072 110.062L421.072 110.062C421.072 33.6792 374.083 -14.6959 355.233 -31.619L146.802 200.547ZM109.072 110.062C109.072 96.2147 111.483 83.4669 115.838 71.6071C119.962 60.375 129.216 40.8147 149.615 22.5007L358.045 254.666C409.143 208.793 421.072 147.343 421.072 110.062L109.072 110.062ZM149.615 22.5007C172.301 2.13458 199.793 -6.84318 225.397 -6.84318L225.397 305.157C272.33 305.157 320.278 288.572 358.045 254.666L149.615 22.5007ZM69.521 142.946L66.7081 213.537L378.461 225.96L381.274 155.368L69.521 142.946Z" fill="white" mask="url(#path-9-inside-1_19_26)"/>
<ellipse cx="143.667" cy="609.334" rx="64.6673" ry="65.2942" fill="white"/>
<ellipse cx="683.601" cy="62.769" rx="62.4107" ry="62.4726" fill="white"/>
<path d="M392.517 35.2964C392.517 15.9664 408.187 0.296387 427.517 0.296387L449.386 0.296387C468.716 0.296387 484.386 15.9664 484.386 35.2964V235.717C484.386 267.947 444.51 283.045 423.163 258.898L401.295 234.161C395.639 227.763 392.517 219.518 392.517 210.979V35.2964Z" fill="white"/>
<path d="M664.128 19.2964C664.128 8.80298 672.635 0.296387 683.128 0.296387H688C724.451 0.296387 754 29.8456 754 66.2964V609C754 645.451 724.451 675 688 675H664.128V19.2964Z" fill="white"/>
<rect width="89.9083" height="133.696" transform="matrix(0.765731 -0.643161 0.642414 0.766358 406.777 240.571)" fill="white"/>
<path d="M98.0656 906C94.2406 906 91.0906 902.85 91.0906 898.8V755.475C91.0906 751.65 94.2406 748.5 98.0656 748.5H150.266C175.241 748.5 199.316 766.5 199.316 794.85C199.316 818.025 183.791 836.475 164.441 842.55L202.241 897.675C204.716 901.275 202.241 906 197.966 906H185.366C181.766 906 178.391 904.2 176.591 901.275L138.791 845.025H113.816V898.8C113.816 902.85 110.666 906 106.841 906H98.0656ZM150.266 823.875C162.641 823.875 176.591 814.425 176.591 796.65C176.591 778.875 162.641 769.65 150.266 769.65H113.816V823.875H150.266ZM276.262 909.6C236.887 909.6 212.587 880.35 214.612 845.25C216.637 814.425 242.062 789.45 272.887 789.45C305.962 789.675 329.362 816.45 329.362 849.525V852.675C329.137 857.4 325.087 861 320.587 861H237.112C241.387 876.75 255.112 888.45 276.262 888.45C286.387 888.45 295.387 884.85 302.362 879C305.062 876.525 309.112 876.75 311.812 879.225L316.312 883.275C319.237 885.975 319.462 890.7 316.537 893.4C306.412 903.525 292.237 909.6 276.262 909.6ZM307.537 841.65C304.612 823.875 291.562 810.6 272.887 810.6C253.987 810.6 239.812 823.875 236.437 841.65H307.537ZM359.98 906C356.155 906 353.005 902.85 353.005 898.8V755.475C353.005 751.65 356.155 748.5 359.98 748.5H371.68C375.28 748.5 378.655 750.3 380.68 753.45L452.23 869.1V755.475C452.23 751.65 455.38 748.5 459.43 748.5H468.205C472.03 748.5 475.18 751.65 475.18 755.475V898.8C475.18 902.85 472.03 906 468.205 906H456.505C452.905 906 449.53 903.975 447.505 901.05L375.955 785.4V898.8C375.955 902.85 372.805 906 368.755 906H359.98ZM560.369 909.6C520.994 909.6 496.694 880.35 498.719 845.25C500.744 814.425 526.169 789.45 556.994 789.45C590.069 789.675 613.469 816.45 613.469 849.525V852.675C613.244 857.4 609.194 861 604.694 861H521.219C525.494 876.75 539.219 888.45 560.369 888.45C570.494 888.45 579.494 884.85 586.469 879C589.169 876.525 593.219 876.75 595.919 879.225L600.419 883.275C603.344 885.975 603.569 890.7 600.644 893.4C590.519 903.525 576.344 909.6 560.369 909.6ZM591.644 841.65C588.719 823.875 575.669 810.6 556.994 810.6C538.094 810.6 523.919 823.875 520.544 841.65H591.644ZM636.211 906C630.811 906 627.436 899.925 630.361 895.2L677.161 819.825L639.586 759.3C636.661 754.575 640.036 748.5 645.661 748.5H652.636C655.786 748.5 658.486 750.075 660.286 752.775L690.211 801.375L720.361 752.775C721.936 750.075 724.861 748.5 727.786 748.5H734.986C740.386 748.5 743.761 754.575 740.836 759.3L703.486 819.825L750.286 895.2C753.211 899.925 749.836 906 744.211 906H735.436C732.286 906 729.586 904.425 727.786 901.95L690.211 841.2L652.636 901.95C651.061 904.425 648.136 906 645.211 906H636.211Z" fill="white"/>
<path d="M18.4593 1022V956.545H41.3429C45.9025 956.545 49.6632 957.334 52.6248 958.911C55.5865 960.466 57.7917 962.565 59.2406 965.207C60.6895 967.827 61.4139 970.736 61.4139 973.932C61.4139 976.744 60.9132 979.067 59.9118 980.899C58.9316 982.732 57.6319 984.18 56.0126 985.246C54.4146 986.311 52.6781 987.099 50.8031 987.611V988.25C52.8059 988.378 54.8194 989.081 56.8436 990.359C58.8677 991.638 60.5616 993.47 61.9253 995.857C63.2889 998.243 63.9707 1001.16 63.9707 1004.61C63.9707 1007.89 63.225 1010.85 61.7335 1013.47C60.242 1016.09 57.8876 1018.16 54.6703 1019.7C51.4529 1021.23 47.2662 1022 42.1099 1022H18.4593ZM26.3855 1014.97H42.1099C47.2875 1014.97 50.9629 1013.97 53.1362 1011.96C55.3308 1009.94 56.4281 1007.49 56.4281 1004.61C56.4281 1002.4 55.8635 1000.35 54.7342 998.477C53.6049 996.581 51.9963 995.068 49.9082 993.939C47.8201 992.788 45.3485 992.213 42.4934 992.213H26.3855V1014.97ZM26.3855 985.31H41.0872C43.4735 985.31 45.6255 984.841 47.5431 983.903C49.4821 982.966 51.0162 981.645 52.1454 979.94C53.296 978.236 53.8713 976.233 53.8713 973.932C53.8713 971.055 52.8699 968.616 50.867 966.613C48.8642 964.589 45.6895 963.577 41.3429 963.577H26.3855V985.31ZM106.909 1001.93V972.909H114.452V1022H106.909V1013.69H106.398C105.247 1016.18 103.458 1018.3 101.029 1020.05C98.5996 1021.78 95.5314 1022.64 91.824 1022.64C88.7559 1022.64 86.0286 1021.97 83.6422 1020.63C81.2559 1019.26 79.3809 1017.22 78.0172 1014.49C76.6536 1011.74 75.9718 1008.28 75.9718 1004.1V972.909H83.5144V1003.59C83.5144 1007.17 84.5158 1010.03 86.5186 1012.16C88.5428 1014.29 91.1209 1015.35 94.253 1015.35C96.128 1015.35 98.035 1014.87 99.9739 1013.91C101.934 1012.96 103.575 1011.49 104.896 1009.5C106.238 1007.52 106.909 1005 106.909 1001.93ZM133.125 1040.41C131.846 1040.41 130.706 1040.3 129.705 1040.09C128.703 1039.9 128.011 1039.71 127.627 1039.51L129.545 1032.87C131.377 1033.34 132.997 1033.51 134.403 1033.38C135.809 1033.25 137.056 1032.62 138.142 1031.49C139.25 1030.38 140.262 1028.58 141.179 1026.09L142.585 1022.26L124.431 972.909H132.613L146.164 1012.03H146.676L160.227 972.909H168.409L147.571 1029.16C146.633 1031.69 145.472 1033.79 144.087 1035.46C142.702 1037.14 141.093 1038.38 139.261 1039.19C137.45 1040 135.404 1040.41 133.125 1040.41ZM247.398 1003.34C244.82 1003.34 242.466 1002.71 240.335 1001.45C238.205 1000.17 236.5 998.467 235.222 996.336C233.964 994.205 233.336 991.851 233.336 989.273C233.336 986.673 233.964 984.319 235.222 982.21C236.5 980.079 238.205 978.385 240.335 977.128C242.466 975.849 244.82 975.21 247.398 975.21C249.998 975.21 252.352 975.849 254.462 977.128C256.592 978.385 258.286 980.079 259.543 982.21C260.822 984.319 261.461 986.673 261.461 989.273C261.461 991.851 260.822 994.205 259.543 996.336C258.286 998.467 256.592 1000.17 254.462 1001.45C252.352 1002.71 249.998 1003.34 247.398 1003.34ZM367.058 972.909C366.674 969.67 365.119 967.156 362.391 965.366C359.664 963.577 356.319 962.682 352.356 962.682C349.458 962.682 346.923 963.151 344.749 964.088C342.597 965.026 340.914 966.315 339.7 967.955C338.506 969.596 337.91 971.46 337.91 973.548C337.91 975.295 338.325 976.798 339.156 978.055C340.009 979.29 341.095 980.324 342.416 981.155C343.737 981.964 345.122 982.636 346.571 983.168C348.02 983.68 349.352 984.095 350.566 984.415L357.214 986.205C358.918 986.652 360.815 987.27 362.903 988.058C365.012 988.847 367.026 989.923 368.943 991.286C370.882 992.629 372.48 994.354 373.737 996.464C374.994 998.573 375.623 1001.16 375.623 1004.23C375.623 1007.77 374.696 1010.96 372.842 1013.82C371.01 1016.67 368.325 1018.94 364.788 1020.63C361.273 1022.31 357.001 1023.15 351.972 1023.15C347.285 1023.15 343.226 1022.39 339.795 1020.88C336.386 1019.37 333.702 1017.26 331.741 1014.55C329.803 1011.85 328.705 1008.7 328.45 1005.12H336.631C336.844 1007.6 337.675 1009.64 339.124 1011.26C340.594 1012.86 342.448 1014.05 344.685 1014.84C346.944 1015.61 349.373 1015.99 351.972 1015.99C354.998 1015.99 357.714 1015.5 360.122 1014.52C362.53 1013.52 364.437 1012.13 365.843 1010.37C367.249 1008.58 367.952 1006.49 367.952 1004.1C367.952 1001.93 367.345 1000.16 366.131 998.797C364.916 997.433 363.318 996.325 361.337 995.473C359.355 994.621 357.214 993.875 354.913 993.236L346.859 990.935C341.745 989.464 337.697 987.366 334.714 984.638C331.731 981.911 330.239 978.342 330.239 973.932C330.239 970.267 331.23 967.071 333.212 964.344C335.214 961.595 337.899 959.464 341.266 957.952C344.653 956.418 348.435 955.651 352.612 955.651C356.83 955.651 360.58 956.407 363.862 957.92C367.143 959.411 369.742 961.457 371.66 964.056C373.599 966.656 374.621 969.607 374.728 972.909H367.058ZM408.214 1023.02C403.484 1023.02 399.404 1021.98 395.974 1019.89C392.564 1017.78 389.933 1014.84 388.079 1011.07C386.247 1007.28 385.331 1002.87 385.331 997.838C385.331 992.81 386.247 988.378 388.079 984.543C389.933 980.686 392.511 977.682 395.814 975.53C399.138 973.357 403.015 972.27 407.447 972.27C410.004 972.27 412.529 972.696 415.022 973.548C417.515 974.401 419.784 975.786 421.829 977.703C423.875 979.599 425.505 982.114 426.719 985.246C427.934 988.378 428.541 992.234 428.541 996.815V1000.01H390.7V993.491H420.871C420.871 990.722 420.317 988.25 419.209 986.077C418.122 983.903 416.567 982.188 414.542 980.931C412.54 979.674 410.175 979.045 407.447 979.045C404.443 979.045 401.844 979.791 399.649 981.283C397.476 982.753 395.803 984.67 394.631 987.036C393.459 989.401 392.873 991.936 392.873 994.642V998.989C392.873 1002.7 393.513 1005.84 394.791 1008.42C396.091 1010.97 397.891 1012.92 400.192 1014.27C402.493 1015.59 405.167 1016.25 408.214 1016.25C410.196 1016.25 411.986 1015.97 413.584 1015.42C415.203 1014.84 416.599 1013.99 417.77 1012.86C418.942 1011.71 419.848 1010.28 420.487 1008.58L427.774 1010.62C427.007 1013.09 425.718 1015.27 423.907 1017.14C422.096 1019 419.858 1020.44 417.195 1021.49C414.532 1022.51 411.538 1023.02 408.214 1023.02ZM447.557 956.545V1022H440.015V956.545H447.557ZM468.915 956.545V1022H461.372V956.545H468.915ZM551.764 1003.34C549.186 1003.34 546.831 1002.71 544.7 1001.45C542.57 1000.17 540.865 998.467 539.587 996.336C538.33 994.205 537.701 991.851 537.701 989.273C537.701 986.673 538.33 984.319 539.587 982.21C540.865 980.079 542.57 978.385 544.7 977.128C546.831 975.849 549.186 975.21 551.764 975.21C554.363 975.21 556.718 975.849 558.827 977.128C560.958 978.385 562.651 980.079 563.909 982.21C565.187 984.319 565.826 986.673 565.826 989.273C565.826 991.851 565.187 994.205 563.909 996.336C562.651 998.467 560.958 1000.17 558.827 1001.45C556.718 1002.71 554.363 1003.34 551.764 1003.34ZM635.627 1022V956.545H657.744C662.857 956.545 667.055 957.419 670.336 959.166C673.617 960.892 676.046 963.268 677.623 966.293C679.2 969.319 679.988 972.76 679.988 976.616C679.988 980.473 679.2 983.893 677.623 986.876C676.046 989.859 673.628 992.202 670.368 993.907C667.108 995.59 662.943 996.432 657.872 996.432H639.974V989.273H657.616C661.11 989.273 663.923 988.761 666.053 987.739C668.205 986.716 669.761 985.267 670.72 983.392C671.7 981.496 672.19 979.237 672.19 976.616C672.19 973.996 671.7 971.705 670.72 969.745C669.74 967.785 668.173 966.272 666.021 965.207C663.869 964.12 661.025 963.577 657.488 963.577H643.553V1022H635.627ZM666.437 992.597L682.545 1022H673.34L657.488 992.597H666.437ZM712.228 1023.02C707.498 1023.02 703.418 1021.98 699.987 1019.89C696.578 1017.78 693.947 1014.84 692.093 1011.07C690.261 1007.28 689.344 1002.87 689.344 997.838C689.344 992.81 690.261 988.378 692.093 984.543C693.947 980.686 696.525 977.682 699.827 975.53C703.151 973.357 707.029 972.27 711.461 972.27C714.018 972.27 716.543 972.696 719.036 973.548C721.528 974.401 723.798 975.786 725.843 977.703C727.888 979.599 729.518 982.114 730.733 985.246C731.947 988.378 732.555 992.234 732.555 996.815V1000.01H694.714V993.491H724.884C724.884 990.722 724.33 988.25 723.222 986.077C722.136 983.903 720.58 982.188 718.556 980.931C716.553 979.674 714.188 979.045 711.461 979.045C708.457 979.045 705.857 979.791 703.663 981.283C701.489 982.753 699.817 984.67 698.645 987.036C697.473 989.401 696.887 991.936 696.887 994.642V998.989C696.887 1002.7 697.526 1005.84 698.805 1008.42C700.104 1010.97 701.905 1012.92 704.206 1014.27C706.507 1015.59 709.181 1016.25 712.228 1016.25C714.21 1016.25 715.999 1015.97 717.597 1015.42C719.217 1014.84 720.612 1013.99 721.784 1012.86C722.956 1011.71 723.862 1010.28 724.501 1008.58L731.788 1010.62C731.021 1013.09 729.732 1015.27 727.92 1017.14C726.109 1019 723.872 1020.44 721.209 1021.49C718.545 1022.51 715.552 1023.02 712.228 1023.02ZM751.571 992.469V1022H744.028V972.909H751.315V980.58H751.955C753.105 978.087 754.852 976.084 757.196 974.571C759.54 973.037 762.565 972.27 766.273 972.27C769.597 972.27 772.505 972.952 774.998 974.315C777.491 975.658 779.43 977.703 780.815 980.452C782.2 983.179 782.892 986.631 782.892 990.807V1022H775.349V991.318C775.349 987.462 774.348 984.457 772.345 982.305C770.342 980.132 767.594 979.045 764.099 979.045C761.692 979.045 759.54 979.567 757.643 980.612C755.768 981.656 754.288 983.179 753.201 985.182C752.114 987.185 751.571 989.614 751.571 992.469ZM818.024 972.909V979.301H792.584V972.909H818.024ZM799.999 961.148H807.541V1007.94C807.541 1010.07 807.85 1011.67 808.468 1012.73C809.107 1013.78 809.917 1014.48 810.897 1014.84C811.899 1015.18 812.953 1015.35 814.061 1015.35C814.892 1015.35 815.574 1015.31 816.107 1015.22C816.639 1015.12 817.066 1015.03 817.385 1014.97L818.919 1021.74C818.408 1021.94 817.694 1022.13 816.778 1022.32C815.862 1022.53 814.7 1022.64 813.294 1022.64C811.164 1022.64 809.075 1022.18 807.03 1021.26C805.006 1020.35 803.323 1018.95 801.98 1017.08C800.659 1015.2 799.999 1012.84 799.999 1009.98V961.148Z" fill="white"/>
</svg>
